<?xml version="1.0" standalone="no"?>
<!DOCTYPE svg PUBLIC "-//W3C//DTD SVG 20010904//EN"
 "http://www.w3.org/TR/2001/REC-SVG-20010904/DTD/svg10.dtd">
<svg version="1.0" xmlns="http://www.w3.org/2000/svg"
 width="2048.000000pt" height="2048.000000pt" viewBox="0 0 2048.000000 2048.000000"
 preserveAspectRatio="xMidYMid meet">
<metadata>
Created by potrace 1.14, written by Peter Selinger 2001-2017
</metadata>
<g transform="translate(0.000000,2048.000000) scale(0.100000,-0.100000)"
fill="#000000" stroke="none">
<path d="M5350 17039 c-634 -34 -1308 -369 -2015 -1001 -673 -602 -1362 -1551
-1886 -2598 -671 -1342 -1113 -2931 -1208 -4345 -18 -265 -21 -345 -25 -625
-12 -923 101 -1733 359 -2585 283 -933 841 -1749 1470 -2151 209 -133 527
-259 780 -308 700 -137 1446 44 2265 548 495 305 934 662 1442 1173 222 223
228 228 233 198 39 -243 111 -561 167 -735 27 -84 79 -187 111 -222 15 -16 40
-48 57 -73 54 -78 122 -95 216 -51 103 48 292 294 399 518 109 231 242 661
465 1508 177 671 401 1474 414 1488 2 1 6 -96 9 -215 15 -516 70 -964 163
-1343 86 -349 153 -520 259 -660 112 -147 173 -190 275 -190 122 0 223 54 358
193 200 203 360 431 548 776 l78 144 26 -33 c47 -64 96 -106 137 -118 143 -43
328 35 532 224 72 66 228 244 305 346 45 61 52 67 63 52 68 -93 223 -61 365
74 21 20 39 34 42 31 2 -2 14 -24 26 -49 25 -49 65 -102 121 -162 33 -34 42
-38 86 -38 97 0 187 64 347 247 44 52 46 52 57 30 29 -56 117 -158 148 -173
164 -78 470 203 858 786 202 305 503 864 760 1415 l52 110 0 -65 c2 -192 42
-464 103 -700 66 -256 91 -309 233 -478 99 -118 286 -86 462 79 337 316 684
898 1063 1781 l97 227 49 -50 c175 -179 418 -305 710 -369 309 -67 796 -69
1247 -5 458 64 948 170 1427 306 186 53 609 193 775 257 l100 38 3 280 2 281
-287 -89 c-956 -295 -1571 -451 -2096 -533 -476 -73 -765 -80 -1025 -24 -220
48 -442 151 -555 258 -43 41 -137 163 -137 179 0 5 20 61 44 124 445 1152 785
2408 837 3092 17 225 -14 409 -77 454 -14 9 -42 34 -63 54 -47 45 -77 52 -252
52 -133 1 -136 0 -179 -28 -121 -80 -289 -308 -432 -588 -262 -510 -471 -1211
-532 -1788 -50 -473 -15 -860 120 -1307 l24 -82 -84 -203 c-349 -842 -669
-1443 -923 -1735 -30 -35 -58 -63 -63 -63 -5 0 -17 39 -29 88 -82 354 -90 910
-26 1697 8 99 18 198 21 220 4 22 49 166 101 320 182 542 329 1051 472 1635
239 976 427 1969 472 2494 17 202 4 273 -52 297 -16 6 -37 24 -46 40 -21 36
-30 38 -201 45 l-143 7 -41 -44 c-75 -79 -149 -277 -304 -818 -337 -1177 -628
-2691 -754 -3923 l-20 -197 -76 -198 c-306 -797 -721 -1660 -1060 -2202 -103
-164 -250 -365 -329 -448 l-54 -58 -1 109 c0 103 2 116 49 260 128 396 224
899 193 1004 -9 29 -20 43 -42 52 -17 7 -38 26 -47 41 -10 16 -25 30 -35 31
-10 1 -30 3 -45 5 -16 1 -76 5 -135 8 -104 5 -108 4 -138 -21 -49 -42 -80
-116 -125 -298 l-41 -169 -23 36 c-12 21 -30 38 -39 39 -151 14 -338 18 -363
7 -35 -14 -81 -80 -114 -162 l-27 -66 -159 6 -160 6 -48 -50 c-60 -62 -110
-150 -171 -302 -65 -159 -99 -298 -112 -449 l-11 -127 -84 -127 c-133 -203
-288 -376 -413 -463 -51 -35 -54 -32 -70 83 l-12 84 55 167 c100 298 124 431
82 455 -11 6 -35 26 -53 45 l-33 33 -132 5 -132 5 -37 -40 c-76 -85 -138 -263
-165 -477 -16 -123 -20 -137 -81 -270 -154 -335 -356 -690 -497 -870 -65 -83
-196 -215 -213 -215 -5 0 -26 34 -46 76 -122 250 -206 687 -246 1289 -15 224
-19 788 -8 1120 l9 279 164 331 c303 612 498 1078 684 1631 375 1116 568 2285
521 3154 -42 783 -216 1345 -510 1640 -193 194 -319 275 -465 300 -118 20
-250 29 -390 26 -127 -3 -162 -7 -229 -29 -201 -66 -396 -238 -615 -545 -338
-474 -612 -1136 -865 -2087 -358 -1348 -620 -3310 -686 -5125 -17 -487 -9
-1544 14 -1745 5 -40 3 -43 -137 -200 -78 -88 -247 -266 -377 -395 -629 -630
-1239 -1077 -1845 -1353 -198 -91 -366 -150 -565 -201 -296 -76 -548 -91 -760
-47 -386 80 -789 291 -1050 551 -696 692 -1115 1847 -1200 3305 -12 207 -11
858 1 1050 64 999 245 1906 570 2860 378 1111 867 2063 1478 2875 214 285 333
423 565 656 333 333 612 557 948 762 717 437 1426 525 1971 245 211 -109 374
-262 479 -448 111 -197 148 -348 148 -605 0 -844 -491 -1790 -1257 -2423 -76
-63 -201 -157 -240 -180 -9 -6 -11 26 -6 140 12 315 -46 515 -191 657 -139
136 -213 165 -447 173 -190 7 -270 -8 -399 -74 -246 -125 -461 -378 -543 -638
-57 -181 -56 -336 3 -563 38 -143 65 -205 130 -292 140 -189 301 -269 546
-270 82 0 234 22 311 45 49 15 50 27 -17 -125 -128 -292 -359 -669 -595 -970
-570 -727 -1358 -1339 -2138 -1661 -324 -133 -529 -173 -630 -122 -15 8 -47
13 -70 11 -41 -3 -42 -4 -39 -38 4 -47 26 -78 70 -98 61 -28 355 -24 497 6
569 122 1315 544 1895 1073 613 560 1111 1252 1381 1919 l67 165 128 74 c351
200 664 459 950 783 587 665 921 1354 1030 2123 23 162 23 463 1 605 -55 345
-183 633 -388 870 -65 76 -244 235 -339 302 -295 208 -715 296 -1270 267z
m3977 -2069 c131 -65 205 -142 276 -290 69 -146 103 -243 127 -367 22 -117 47
-315 59 -473 12 -147 6 -708 -8 -865 -111 -1191 -445 -2347 -1041 -3597 -100
-209 -125 -254 -167 -296 -61 -61 -105 -144 -189 -358 -65 -169 -125 -283
-312 -599 -205 -346 -416 -669 -651 -1002 l-136 -192 -5 37 c-8 56 -2 630 10
957 42 1150 175 2433 371 3575 246 1439 615 2608 1006 3193 98 145 237 267
355 309 40 14 73 18 135 15 73 -3 92 -8 170 -47z m7473 -1262 c-60 -481 -237
-1185 -485 -1923 -135 -402 -150 -443 -158 -422 -12 32 -7 408 8 552 50 478
182 968 390 1441 91 207 236 466 252 451 2 -3 0 -48 -7 -99z m-11905 -500 c72
-28 117 -69 149 -137 l31 -66 -1 -170 c0 -147 -11 -268 -31 -354 -7 -29 -102
-75 -273 -133 -151 -51 -269 -72 -324 -57 -163 43 -242 152 -253 349 -10 177
31 286 151 397 183 170 390 234 551 171z m2695 -7034 c-44 -153 -113 -382
-153 -509 l-72 -230 -12 90 c-6 50 -19 179 -28 287 l-16 197 134 168 c73 92
153 194 177 226 23 32 44 56 46 54 2 -2 -32 -129 -76 -283z"/>
</g>
</svg>
